# xmcd CD database file
#
# Track frame offsets:
#	150
#	14851
#	25418
#	36629
#	52443
#	64197
#	77782
#	90258
#	101804
#	115829
#	131286
#	141348
#	152958
#	165945
#	178355
#	191705
#	206673
#	217243
#	232918
#	248664
#	259175
#	270803
#
# Disc length: 3743 seconds
#
# Revision: 0
# Processed by: cddbd v1.5.2PL0 Copyright (c) Steve Scherf et al.
# Submitted via: CDex 1.60beta1
#
DISCID=490e9d16
DTITLE=Kenny Rogers - Kenny Rogers CD-A
DYEAR=2007
DGENRE=Blues
TTITLE0=All God's Lonely Children - All God's Lonely Children
TTITLE1=Goodtime - Liberator
TTITLE2=Hurry Up Love - Hurry Up Love
TTITLE3=I Found A Reason - I Found A Reason
TTITLE4=I Just Wanna Give My Love To You - I Just Wanna Give My Love To You
TTITLE5=I'm Gonna Sing You A Sad Song Suzie - I'm Gonna Sing You A Sad Song Suzie
TTITLE6=Love Woman (Kenny Rogers - Love Woman (Kenny Rogers)
TTITLE7=Me And Bobby McGee - Me And Bobby McGee
TTITLE8=Molly - Molly
TTITLE9=My Washington Woman - My Washington Woman
TTITLE10=A New Design (Kenny Rogers - A New Design (Kenny Rogers)
TTITLE11=Poem For My Lady - Poem For My Lady
TTITLE12=Run Thru Your Mind (Kenny Rogers - Run Thru Your Mind (Kenny Rogers)
TTITLE13=Shadow In The Corner Of Your Mind (Kenny Rogers - Shadow In The Corner Of Your Mind (Kenny Rogers)
TTITLE14=Sleep Comes Easy - Sleep Comes Easy
TTITLE15=Tell It All Brother - Tell It All Brother
TTITLE16=Trying Just As Hard - Trying Just As Hard
TTITLE17=Tulsa - Turnaround
TTITLE18=The Way It Used To Be - The Way It Used To Be
TTITLE19=We All Got To Help Each Other - We All Got To Help Each Other
TTITLE20=What Am I Gonna Do - What Am I Gonna Do
TTITLE21=Where Does Rosie Go - Where Does Rosie Go
EXTD=YEAR: 2007
EXTT0=
EXTT1=
EXTT2=
EXTT3=
EXTT4=
EXTT5=
EXTT6=
EXTT7=
EXTT8=
EXTT9=
EXTT10=
EXTT11=
EXTT12=
EXTT13=
EXTT14=
EXTT15=
EXTT16=
EXTT17=
EXTT18=
EXTT19=
EXTT20=
EXTT21=
PLAYORDER=
